<?xml version="1.0" standalone="no"?>
<!DOCTYPE svg PUBLIC "-//W3C//DTD SVG 20010904//EN"
 "http://www.w3.org/TR/2001/REC-SVG-20010904/DTD/svg10.dtd">
<svg version="1.0" xmlns="http://www.w3.org/2000/svg"
 width="269.000000pt" height="257.000000pt" viewBox="0 0 269.000000 257.000000"
 preserveAspectRatio="xMidYMid meet">

<g transform="translate(0.000000,257.000000) scale(0.100000,-0.100000)"
fill="#6b6f76" stroke="none">
<path d="M200 2285 l0 -155 80 0 80 0 0 75 0 75 80 0 80 0 0 80 0 80 -160 0
-160 0 0 -155z"/>
<path d="M1210 2360 l0 -80 160 0 160 0 0 80 0 80 -160 0 -160 0 0 -80z"/>
<path d="M2260 2360 l0 -80 60 0 60 0 0 -75 0 -75 100 0 100 0 0 155 0 155
-160 0 -160 0 0 -80z"/>
<path d="M550 2309 c0 -5 5 -7 10 -4 6 3 10 8 10 11 0 2 -4 4 -10 4 -5 0 -10
-5 -10 -11z"/>
<path d="M678 2299 c-18 -19 -16 -19 70 -19 75 0 90 3 105 20 17 20 16 20 -71
19 -72 -1 -90 -4 -104 -20z"/>
<path d="M982 2300 c-12 -19 -10 -20 71 -20 70 0 85 3 100 20 17 20 16 20 -71
20 -76 0 -89 -2 -100 -20z"/>
<path d="M1587 2300 c-17 -20 -16 -20 68 -20 74 0 86 2 95 20 10 19 8 20 -67
20 -66 0 -81 -3 -96 -20z"/>
<path d="M1887 2300 c-17 -20 -16 -20 62 -20 65 0 81 3 96 20 18 20 17 20 -61
20 -67 0 -82 -3 -97 -20z"/>
<path d="M2190 2300 c-9 -18 -8 -20 15 -20 18 0 25 5 25 20 0 11 -7 20 -15 20
-8 0 -19 -9 -25 -20z"/>
<path d="M320 2084 c0 -14 3 -15 18 -3 9 7 19 15 21 16 2 2 -5 3 -17 3 -14 0
-22 -6 -22 -16z"/>
<path d="M2380 2065 c0 -34 1 -34 20 -18 11 10 20 25 20 35 0 11 -8 18 -20 18
-16 0 -20 -7 -20 -35z"/>
<path d="M338 1958 c-15 -15 -18 -36 -18 -108 l0 -90 20 20 c18 18 20 31 18
108 -3 83 -4 86 -20 70z"/>
<path d="M2398 1913 c-14 -15 -18 -38 -18 -102 l0 -82 20 19 c18 17 20 29 18
102 -3 79 -4 81 -20 63z"/>
<path d="M880 1760 c-19 -19 -20 -33 -20 -445 0 -485 -8 -445 94 -445 91 0 86
-22 87 393 l0 362 128 -368 c70 -203 134 -372 141 -378 22 -13 134 -11 153 4
9 6 75 175 147 376 71 200 132 367 135 369 3 3 5 -164 5 -370 0 -424 -8 -388
85 -388 93 0 85 -43 85 441 0 518 15 472 -152 467 -106 -3 -111 -4 -131 -31
-12 -15 -71 -158 -131 -318 -73 -192 -112 -285 -118 -276 -4 8 -49 127 -99
263 -50 137 -99 268 -109 291 -26 60 -58 73 -180 73 -87 0 -103 -3 -120 -20z"/>
<path d="M338 1660 c-15 -14 -18 -34 -18 -108 l0 -92 20 20 c18 18 20 31 18
109 -3 83 -4 87 -20 71z"/>
<path d="M2397 1612 c-12 -13 -17 -37 -17 -85 0 -60 2 -67 20 -67 18 0 20 7
20 85 0 47 -2 85 -3 85 -2 0 -11 -8 -20 -18z"/>
<path d="M200 1270 l0 -160 80 0 80 0 0 160 0 160 -80 0 -80 0 0 -160z"/>
<path d="M2380 1270 l0 -160 100 0 100 0 0 160 0 160 -100 0 -100 0 0 -160z"/>
<path d="M338 1060 c-15 -14 -18 -34 -18 -109 l0 -92 20 19 c18 17 20 29 18
109 -3 85 -4 89 -20 73z"/>
<path d="M2398 1016 c-15 -11 -18 -29 -18 -100 l0 -87 20 19 c18 17 20 29 18
100 -3 75 -4 80 -20 68z"/>
<path d="M338 764 c-15 -18 -18 -42 -17 -121 0 -54 3 -91 6 -83 4 8 12 20 20
25 10 8 13 34 11 107 -3 94 -3 95 -20 72z"/>
<path d="M2398 716 c-15 -11 -18 -29 -18 -100 l0 -87 20 19 c18 17 20 29 18
100 -3 75 -4 80 -20 68z"/>
<path d="M350 476 c0 -8 -6 -17 -12 -19 -8 -3 -6 -6 5 -6 11 -1 17 6 17 19 0
11 -2 20 -5 20 -3 0 -5 -6 -5 -14z"/>
<path d="M200 260 l0 -160 160 0 160 0 0 100 0 100 -80 0 -80 0 0 60 0 60 -80
0 -80 0 0 -160z"/>
<path d="M2380 360 l0 -60 -60 0 -60 0 0 -100 0 -100 160 0 160 0 0 160 0 160
-100 0 -100 0 0 -60z"/>
<path d="M550 280 c0 -16 7 -20 35 -20 22 0 44 8 57 20 l22 20 -57 0 c-50 0
-57 -2 -57 -20z"/>
<path d="M760 286 c0 -8 -8 -17 -17 -19 -10 -3 26 -5 80 -6 85 -1 101 2 119
19 l22 20 -102 0 c-82 0 -102 -3 -102 -14z"/>
<path d="M1060 280 c-10 -19 -8 -20 55 -20 58 0 65 2 65 20 0 18 -7 20 -55 20
-44 0 -56 -4 -65 -20z"/>
<path d="M1210 200 l0 -100 160 0 160 0 0 100 0 100 -160 0 -160 0 0 -100z"/>
<path d="M1662 280 c-12 -19 -10 -20 71 -20 70 0 85 3 100 20 17 20 16 20 -71
20 -76 0 -89 -2 -100 -20z"/>
<path d="M1962 280 c-12 -19 -10 -20 71 -20 71 0 87 3 102 20 18 20 17 20 -71
20 -78 0 -91 -2 -102 -20z"/>
</g>
</svg>
